<svg xmlns="http://www.w3.org/2000/svg" height="15.480996mm" width="11.288889mm" viewBox="0 0 40.000001 54.853924" id="svg2"><defs id="defs8"><filter id="filter3681" color-interpolation-filters="sRGB"><feFlood flood-opacity="0.498039" flood-color="#000" result="flood" id="feFlood3683"/><feComposite in="flood" in2="SourceGraphic" operator="in" result="composite1" id="feComposite3685"/><feGaussianBlur in="composite1" stdDeviation="3" result="blur" id="feGaussianBlur3687"/><feOffset dx="2" dy="2" result="offset" id="feOffset3689"/><feComposite in="SourceGraphic" in2="offset" result="composite2" id="feComposite3691"/></filter><filter id="filter4485" color-interpolation-filters="sRGB"><feFlood flood-opacity="0.498039" flood-color="#000" result="flood" id="feFlood4487"/><feComposite in="flood" in2="SourceGraphic" operator="out" result="composite1" id="feComposite4489"/><feGaussianBlur in="composite1" stdDeviation="3" result="blur" id="feGaussianBlur4491"/><feOffset dy="1.38778e-16" result="offset" id="feOffset4493"/><feComposite in="offset" in2="SourceGraphic" operator="atop" result="composite2" id="feComposite4495"/></filter><clipPath id="clipPath3187"><path id="rect3189" fill="#fff" d="M86.953659 265.32013H253.057439V351.158997H86.953659z"/></clipPath></defs><path d="m 310.02064,587.29285 c -54.20163,-1.5e-4 -98.14077,43.93899 -98.14062,98.14062 0.0254,18.20912 5.1162,36.05213 14.70312,51.53321 11.26125,18.29803 27.8606,40.55417 41.37305,59.74804 l 42.06445,59.74805 42.06445,-59.74805 c 13.66709,-19.98645 27.7151,-39.71713 41.31446,-59.74804 9.60751,-15.475 14.71877,-33.31843 14.76172,-51.53321 1.5e-4,-54.20163 -43.939,-98.14077 -98.14063,-98.14062 z" id="path3570" transform="matrix(.16982 0 0 .16982 -32.65 -95.165)" fill="#fff" fill-rule="evenodd" filter="url(#filter3681)"/><text fill="#fffff" id="text3497" y="24.561106" x="20.21372" style="line-height:125%;text-align:center" font-size="9.02916908px" font-family="sans-serif" letter-spacing="0px" word-spacing="0px" text-anchor="middle" stroke-width="1px"><tspan y="24.561106" x="20.21372" id="tspan3499">29.13</tspan></text></svg>